<?xml version="1.0" encoding="UTF-8" standalone="no"?>
<!-- Created with Inkscape (http://www.inkscape.org/) -->

<svg
   xmlns:dc="http://purl.org/dc/elements/1.1/"
   xmlns:cc="http://creativecommons.org/ns#"
   xmlns:rdf="http://www.w3.org/1999/02/22-rdf-syntax-ns#"
   xmlns:svg="http://www.w3.org/2000/svg"
   xmlns="http://www.w3.org/2000/svg"
   xmlns:sodipodi="http://sodipodi.sourceforge.net/DTD/sodipodi-0.dtd"
   xmlns:inkscape="http://www.inkscape.org/namespaces/inkscape"
   id="svg4785"
   version="1.1"
   inkscape:version="0.91 r13725"
   width="216.60001"
   height="76.800003"
   viewBox="0 0 216.60001 76.800003"
   sodipodi:docname="Emergent_Full.jpg.svg"
   inkscape:export-filename="/Users/probe/ownCloud/Emergent_logos/Emergent_Logo_DM_300.png"
   inkscape:export-xdpi="126.88"
   inkscape:export-ydpi="126.88">
  <metadata
     id="metadata4791">
    <rdf:RDF>
      <cc:Work
         rdf:about="">
        <dc:format>image/svg+xml</dc:format>
        <dc:type
           rdf:resource="http://purl.org/dc/dcmitype/StillImage" />
        <dc:title></dc:title>
      </cc:Work>
    </rdf:RDF>
  </metadata>
  <defs
     id="defs4789" />
  <sodipodi:namedview
     pagecolor="#ffffff"
     bordercolor="#666666"
     borderopacity="1"
     objecttolerance="10"
     gridtolerance="10"
     guidetolerance="10"
     inkscape:pageopacity="0"
     inkscape:pageshadow="2"
     inkscape:window-width="1440"
     inkscape:window-height="855"
     id="namedview4787"
     showgrid="false"
     inkscape:zoom="5.6568542"
     inkscape:cx="87.185513"
     inkscape:cy="47.493273"
     inkscape:window-x="0"
     inkscape:window-y="1"
     inkscape:window-maximized="1"
     inkscape:current-layer="svg4785"
     showguides="false" />
  <path
     inkscape:connector-curvature="0"
     style="fill:#cccccc;fill-opacity:1"
     d="m 38.227668,67.667712 c -1.36503,-0.51241 -4.048461,-1.86134 -5.393798,-2.71139 C 26.185291,60.755442 21.472841,54.314162 19.745605,47.066429 18.799826,43.097803 18.706947,38.986942 19.472947,34.998473 l 0.258138,-1.344091 0.78771,-0.559355 c 1.917207,-1.361412 5.512305,-3.19838 8.370669,-4.277118 0.710893,-0.268288 1.307204,-0.487798 1.325135,-0.487798 0.01793,0 -0.445319,0.907437 -1.02944,2.016528 -1.003335,1.905064 -2.02899,4.473273 -2.39457,5.995926 -0.09043,0.376654 -0.196249,0.808094 -0.235147,0.958756 -0.216064,0.836849 -0.505958,2.822589 -0.63985,4.38288 -0.303965,3.542244 0.256576,7.794399 1.480549,11.231133 0.241457,0.677976 0.49716,1.355958 0.56823,1.506618 0.07107,0.15066 0.29466,0.65434 0.496869,1.11928 1.230392,2.82908 3.529055,6.06302 6.198578,8.72067 0.841999,0.83826 2.486388,2.20316 3.937203,3.26802 0.570697,0.41888 0.474762,0.45467 -0.369353,0.13779 z"
     id="path4241" />
  <path
     inkscape:connector-curvature="0"
     style="fill:#f9f9f9;fill-opacity:1"
     d="M 27.305676,63.379262 C 18.495952,61.231122 11.933582,58.130162 7.5867923,54.061352 4.1686996,50.86185 2.5752896,47.645073 2.5752896,43.944125 c 0,-2.781784 0.832885,-5.072607 2.7886339,-7.670042 1.5557315,-2.066174 4.8957275,-4.819099 7.8366415,-6.459199 3.088471,-1.722388 7.250289,-3.419826 10.682887,-4.357117 0.600709,-0.164028 1.256029,-0.352162 1.456266,-0.418077 0.51442,-0.169338 3.155889,-0.753968 4.878489,-1.079746 7.11377,-1.345353 15.025059,-1.658634 22.863371,-0.905373 7.168225,1.036964 6.215868,1.06942 10.976866,2.05258 C 52.613892,24.483819 60.507959,24.922365 52.613892,24.483819 44.919305,24.06842 35.352215,25.230097 28.616315,27.397706 18.18519,30.754437 11.552074,35.735021 9.442804,41.794444 c -0.471844,1.3555 -0.486023,1.462523 -0.484339,3.656296 0.0019,2.486585 0.09493,2.926773 1.05642,4.999224 0.796286,1.716355 1.980261,3.267643 3.820337,5.005558 1.843137,1.74081 3.081253,2.65761 5.38818,3.98984 2.494865,1.44076 5.722637,2.85574 8.55556,3.75056 0.660781,0.20871 1.20142,0.43093 1.20142,0.49381 -0.656307,-0.0404 -1.516427,-0.27186 -1.674706,-0.31047 z"
     id="path4237" />
  <path
     style="fill:#cccccc;fill-opacity:1"
     d="m 24.707676,23.356327 c 0.26382,-0.421244 0.941664,-1.232399 2.03217,-2.431837 2.42997,-2.672701 5.810051,-5.134017 9.250487,-6.73604 3.705499,-1.725447 6.746075,-2.521471 11.155358,-2.920468 2.160515,-0.195507 3.358775,-0.125965 4.866882,0.0081 1.483158,0.131844 3.386353,0.441826 5.583428,1.074225 1.766864,0.508568 2.435131,0.751051 3.840461,1.440853 1.841975,0.904131 1.463709,0.71292 -0.308332,0.565177 -1.810437,-0.150944 -1.32608,-0.13416 -4.478701,-0.172036 -3.566345,-0.04284 -4.955523,0.146876 -8.06033,0.56399 -1.462979,0.214467 -2.9869,0.631487 -4.449333,1.164309 -3.807143,1.387093 -8.36882,3.889472 -9.4167,5.150395 -0.57644,0.105769 -2.371084,0.342684 -3.283821,0.560555 -2.889758,0.689789 -2.941815,0.706856 -5.152955,1.391636 -1.617268,0.50086 -1.68825,0.5162 -1.578614,0.341143 z"
     id="path3406"
     inkscape:connector-curvature="0"
     sodipodi:nodetypes="ssssssssscscsss" />
  <g
     id="g5004"
     style="fill:#000061;fill-opacity:1"
     transform="translate(0.60629799,0.90944747)">
    <g
       id="g5117"
       transform="translate(33.947407,4.6302039)"
       style="fill:#f9f9f9">
      <path
         style="fill-opacity:1;fill:#f9f9f9"
         d="m 94.82413,43.942097 c -2.810894,-0.949107 -4.60368,-3.734411 -4.59854,-6.590756 0.003,-1.444289 0.67471,-3.84043 1.61811,-5.768671 1.40055,-2.862612 4.8477,-5.825861 8.13131,-6.98985 2.21133,-0.783879 6.53832,-0.93145 8.71947,-0.297374 2.86588,0.833136 4.91747,3.36664 4.9242,6.080894 0.002,0.660967 -0.07,0.675 -3.44833,0.675 -2.2,0 -3.45,-0.113636 -3.45,-0.313636 0,-0.1725 -0.33136,-0.645 -0.73636,-1.05 -0.58973,-0.589727 -1.04171,-0.736364 -2.26972,-0.736364 -1.74659,0 -2.43996,0.28964 -3.81965,1.595554 -1.75711,1.663169 -2.71385,5.591952 -1.8327,7.525873 0.3678,0.807238 1.89701,1.678574 2.94593,1.678574 1.33411,0 3.40421,-1.16414 3.81512,-1.473152 l 0.95822,-0.720598 -1.49605,0.0625 c -0.77059,0.03219 -1.45425,-0.0063 -1.45425,-0.0063 0,0 0.25571,-1.29 0.55535,-2.3625 l 0.54481,-1.950001 4.85224,-0.08247 4.85224,-0.08247 -0.17542,0.682468 c -0.0965,0.375357 -0.74176,2.842468 -1.43395,5.482468 l -1.25852,4.8 -2.32365,0.08762 -2.32364,0.08762 0.0625,-0.87681 0.125,-1.06431 -2.0625,1.084952 c -1.06069,0.557964 -2.18118,1.040003 -4.875,1.046428 -1.856859,0.0044 -3.458457,-0.157453 -4.54622,-0.524739 z m -99.2859975,0.315494 4.98221994,-20.104082 c 0,0 4.38750006,-0.0022 9.74999956,-0.0022 5.3625,0 9.75,-0.02664 9.75,-0.02664 0,0 -0.286576,1.490971 -0.636836,2.8875 l -0.636836,2.539143 -6.242947,0 c -5.9862095,0 -6.4756645,-0.02495 -6.4756645,-0.02495 -0.1494596,0.594264 -0.652932,2.45 -0.652932,2.45 0,0 0.34804,-0.025 5.6452155,-0.025 5.039738,0 5.349701,0.05625 5.349701,0.05625 0,0 -0.435455,1.770001 -0.704004,2.718751 l -0.488272,1.725 -5.3584955,0 c -5.101758,0 -5.528713,0.0375 -5.528713,0.0375 l -0.652932,2.35625 c 0,0 0.28555,0.0063 6.5008415,0.0063 l 6.421059,0 -0.243532,1.125 c -0.132595,0.612523 -0.392053,1.83375 -0.649965,2.7 l -0.468932,1.575 -9.9085935,0 c -9.297028,0 -9.750382,0.0063 -9.750382,0.0063 z m 21.5854855,-0.0125 c 0,0 1.241536,-4.758742 2.589475,-10.032622 1.347939,-5.273879 2.596734,-10.0125 2.596734,-10.0125 0,0 2.230469,-0.04863 4.778231,-0.04863 l 4.632294,0 0.05844,2.925 c 0.03214,1.60875 0.08724,3.2625 0.122433,3.675 0.0352,0.4125 0.0764,1.41375 0.09156,2.225001 0.01515,0.811249 0.128745,1.373821 0.252408,1.250158 0.123663,-0.123663 0.832413,-1.332771 1.575,-2.686906 0.742587,-1.354135 1.957659,-3.570323 2.700159,-4.924863 l 1.35,-2.462799 4.575,-2.95e-4 c 3.465414,-2.24e-4 3.447606,-0.0031 4.565133,-2.96e-4 0,0 -1.131953,5.07 -2.503395,10.350001 l -2.493531,9.69375 -3.196605,-0.0086 c -2.192615,-0.0059 -3.227852,0.0024 -3.227852,0.0024 0,0 0.581417,-2.677397 1.253846,-5.237553 0.672429,-2.560156 1.165488,-4.711939 1.095687,-4.781741 -0.0698,-0.0698 -1.396221,2.169496 -2.947599,4.976214 l -2.820684,5.103125 -2.625,0.0012 -2.625,0.0012 -0.0377,-1.125 c -0.02073,-0.61875 -0.121983,-3.0825 -0.225,-5.475 l -0.187302,-4.350001 -1.142556,4.350001 c -0.628404,2.3925 -1.274856,4.85625 -1.436562,5.475 l -0.294009,1.125 -3.306141,0 c -1.818378,0 -3.167464,-0.0062 -3.167464,-0.0062 z m 27.796734,-0.2422 4.975071,-19.63591 c 0,0 7.155512,-0.04832 9.945055,-0.08306 2.789543,-0.03474 9.691302,-0.08839 9.691302,-0.08839 l -0.20378,0.780806 c -0.118028,0.452239 -0.4306,1.635 -0.70783,2.625 l -0.50406,1.8 -6.347878,0.08097 c -5.784756,0.07378 -6.195725,0.1 -6.195725,0.1 l -0.584633,2.306533 5.347489,0.0625 c 3.473148,0.04059 5.284989,0.06335 5.284989,0.06335 0,0 -0.218913,1.43484 -0.486471,2.5 l -0.486474,1.936655 -5.345823,0 c -2.940201,0 -5.446999,0.0063 -5.446999,0.0063 0,0 -0.257777,0.8825 -0.372791,1.41875 l -0.209115,0.975 c 0,0 4.24127,-8.98e-4 6.355085,0 2.113815,8.98e-4 6.323838,0.0046 6.323838,0.0046 0,0 -0.317825,1.459721 -0.668087,2.85625 l -0.636834,2.414144 -9.863166,-0.03125 c -5.424711,-0.01719 -9.863163,-0.0922 -9.863163,-0.0922 z m 21.715324,0.209735 c 0,0 4.984674,-19.776012 4.984674,-19.936679 0,-0.09851 3.27375,-0.121708 7.275,-0.05154 8.08878,0.141843 9.63542,0.41996 11.15481,2.005857 2.01523,2.103454 0.92874,6.149333 -2.14756,7.997071 l -1.54168,0.925993 0.85696,0.494319 c 1.16065,0.669498 1.30108,2.864807 0.50977,7.097446 l -0.2816,1.50625 -3.59782,0 -3.59782,0 0.18358,-0.825 c 0.10096,-0.45375 0.2693,-1.712609 0.37407,-2.797465 0.18337,-1.89858 0.15943,-1.996907 -0.63906,-2.625 -0.6646,-0.522772 -1.22981,-0.652535 -2.84226,-0.652535 l -2.01269,0 -0.88231,3.375 -0.890123,3.441406 c 0,0 -2.342447,0.01331 -3.530027,0.01831 -1.18758,0.005 -3.375914,0.02656 -3.375914,0.02657 z m 16.248314,-12.097649 c 0.88777,-0.887774 0.96318,-2.121139 0.15608,-2.553081 -0.31915,-0.170806 -1.72003,-0.310556 -3.11307,-0.310556 l -2.53281,0 -0.45342,1.8 -0.45342,1.8 2.83014,0 c 2.60484,0 2.88876,-0.05862 3.5665,-0.736363 z m 31.38993,7.711364 c 0.63329,-2.43375 1.79156,-6.922501 2.57394,-9.975001 l 1.42249,-5.55 9.675,-0.07916 c 4.95719,-0.04056 6.50132,-0.106274 9.81515,-0.05936 -0.14635,0.478372 -0.82802,3.412267 -1.01829,4.113517 l -0.34594,1.275 -6.25297,0 c -3.26221,0 -5.84736,-0.0601 -6.34011,-0.0125 -0.1597,0.595903 -0.44304,1.829956 -0.54742,2.429264 1.07255,-0.05127 1.70512,-0.01676 5.53842,-0.01676 l 5.27384,0 -0.21273,0.96855 c -0.117,0.532701 -0.3698,1.511452 -0.56178,2.175 l -0.34905,1.206451 -5.42588,0.08163 -5.42589,0.08163 -0.18617,0.930872 c -0.1024,0.51198 -0.26801,0.939794 -0.40493,1.474623 2.24368,0.03833 2.84021,-0.01875 6.04422,-0.01875 3.204,0 6.78718,0.04019 6.78718,0.04019 0,0 -0.19372,0.671859 -0.71809,2.825 l -0.61732,2.534812 -9.93755,0 -9.93755,0 z m 20.61518,4.454081 c 0.34941,-1.585847 4.69328,-19.072823 5.01347,-20.135332 1.01394,0.0077 0.58507,0.0063 3.663,0.0068 l 3.50478,5.94e-4 0.63319,1.574405 c 0.34825,0.865923 1.28788,3.185426 2.08806,5.154452 l 1.45488,3.580046 0.51255,-1.72655 c 0.2819,-0.949602 0.88883,-3.269373 1.34874,-5.155046 l 0.83619,-3.428496 13.4382,0 c 7.39101,0 13.43819,0.07239 13.43819,0.160857 0,0.08847 -0.28657,1.303471 -0.63683,2.7 l -0.63684,2.539143 -3.26317,0 c -1.79473,0 -3.26625,0.03375 -3.27004,0.075 -0.004,0.04125 -0.89302,3.30628 -1.90113,7.275001 l -1.85557,7.304961 c 0,0 -2.92486,-0.0187 -3.56085,-0.02024 -0.63599,-0.0015 -3.46089,-0.0125 -3.46089,-0.0125 0,0 3.17907,-12.633841 3.64782,-14.566376 -1.3125,-0.04024 -1.56956,-0.05585 -3.16698,-0.05585 l -3.10447,0 -1.68607,6.525001 c -0.92734,3.58875 -1.77347,6.900279 -1.88029,7.358955 l -0.19423,0.833954 c 0,0 -2.38468,-0.0091 -3.60436,-0.01364 -1.21968,-0.0045 -3.58092,-0.01365 -3.58092,-0.01365 l -1.92757,-4.640625 c -1.02961,-2.47879 -1.89506,-4.66875 -1.90306,-4.875 -0.008,-0.20625 -0.1158,-0.374898 -0.23955,-0.374774 -0.12375,1.25e-4 -0.68501,1.788875 -1.24725,3.975 -0.56225,2.186126 -1.14234,4.413524 -1.2891,4.949774 l -0.26685,0.975 -3.4359,0 c -1.88974,0 -2.27965,-0.02285 -3.46715,0.02908 z"
         id="path5121"
         inkscape:connector-curvature="0"
         sodipodi:nodetypes="ccssscsssssssscscsccccscccccssscsscscsccscscsccscsscsccssscsccssscscscscssscccsscsscscsssczsscscccsccscccszccsscsccscssccccssscccsszcccccscsccccscsccscsscccccscsccccccccsscsscssscscscsczccscccczcssccsccccc" />
    </g>
  </g>
  <text
     xml:space="preserve"
     style="font-style:normal;font-variant:normal;font-weight:normal;font-stretch:normal;font-size:17.5px;line-height:125%;font-family:Arial;-inkscape-font-specification:Arial;letter-spacing:0px;word-spacing:0px;fill:#cccccc;fill-opacity:1;stroke:none;stroke-width:1px;stroke-linecap:butt;stroke-linejoin:miter;stroke-opacity:1;"
     x="39.774761"
     y="64.072083"
     id="text5089"
     sodipodi:linespacing="125%"><tspan
       sodipodi:role="line"
       id="tspan5091"
       x="39.774761"
       y="64.072083"
       style="font-style:italic;font-variant:normal;font-weight:normal;font-stretch:normal;font-size:17.5px;font-family:Arial;-inkscape-font-specification:'Arial Italic';fill:#cccccc;fill-opacity:1;">Space Technologies</tspan></text>
</svg>
